ISO-10303-21;
HEADER;
/* Generated by software containing ST-Developer
 * from STEP Tools, Inc. (www.steptools.com) 
 */

FILE_DESCRIPTION(
/* description */ ('',
'CAx-IF Rec.Pracs.---Representation and Presentation of Product Manufa
cturing Information (PMI)---4.0---2014-10-13'),
/* implementation_level */ '2;1');

FILE_NAME(
/* name */ 'Low Profile Numpad V1 OLED cover.step',
/* time_stamp */ '2025-02-12T17:51:10+01:00',
/* author */ (''),
/* organization */ (''),
/* preprocessor_version */ 'ST-DEVELOPER v20',
/* originating_system */ 'Autodesk Translation Framework v13.20.0.188',

/* authorisation */ '');

FILE_SCHEMA (('AP242_MANAGED_MODEL_BASED_3D_ENGINEERING_MIM_LF { 1 0 10303 442 1 1 4 }'));
ENDSEC;

DATA;
#10=MECHANICAL_DESIGN_GEOMETRIC_PRESENTATION_REPRESENTATION('',(#13),#1393);
#11=SHAPE_REPRESENTATION_RELATIONSHIP('SRR','None',#1399,#12);
#12=ADVANCED_BREP_SHAPE_REPRESENTATION('',(#14),#1392);
#13=STYLED_ITEM('',(#1412),#14);
#14=MANIFOLD_SOLID_BREP('Body11',#885);
#15=FACE_BOUND('',#74,.T.);
#16=FACE_BOUND('',#90,.T.);
#17=FACE_OUTER_BOUND('',#61,.T.);
#18=FACE_OUTER_BOUND('',#62,.T.);
#19=FACE_OUTER_BOUND('',#63,.T.);
#20=FACE_OUTER_BOUND('',#64,.T.);
#21=FACE_OUTER_BOUND('',#65,.T.);
#22=FACE_OUTER_BOUND('',#66,.T.);
#23=FACE_OUTER_BOUND('',#67,.T.);
#24=FACE_OUTER_BOUND('',#68,.T.);
#25=FACE_OUTER_BOUND('',#69,.T.);
#26=FACE_OUTER_BOUND('',#70,.T.);
#27=FACE_OUTER_BOUND('',#71,.T.);
#28=FACE_OUTER_BOUND('',#72,.T.);
#29=FACE_OUTER_BOUND('',#73,.T.);
#30=FACE_OUTER_BOUND('',#75,.T.);
#31=FACE_OUTER_BOUND('',#76,.T.);
#32=FACE_OUTER_BOUND('',#77,.T.);
#33=FACE_OUTER_BOUND('',#78,.T.);
#34=FACE_OUTER_BOUND('',#79,.T.);
#35=FACE_OUTER_BOUND('',#80,.T.);
#36=FACE_OUTER_BOUND('',#81,.T.);
#37=FACE_OUTER_BOUND('',#82,.T.);
#38=FACE_OUTER_BOUND('',#83,.T.);
#39=FACE_OUTER_BOUND('',#84,.T.);
#40=FACE_OUTER_BOUND('',#85,.T.);
#41=FACE_OUTER_BOUND('',#86,.T.);
#42=FACE_OUTER_BOUND('',#87,.T.);
#43=FACE_OUTER_BOUND('',#88,.T.);
#44=FACE_OUTER_BOUND('',#89,.T.);
#45=FACE_OUTER_BOUND('',#91,.T.);
#46=FACE_OUTER_BOUND('',#92,.T.);
#47=FACE_OUTER_BOUND('',#93,.T.);
#48=FACE_OUTER_BOUND('',#94,.T.);
#49=FACE_OUTER_BOUND('',#95,.T.);
#50=FACE_OUTER_BOUND('',#96,.T.);
#51=FACE_OUTER_BOUND('',#97,.T.);
#52=FACE_OUTER_BOUND('',#98,.T.);
#53=FACE_OUTER_BOUND('',#99,.T.);
#54=FACE_OUTER_BOUND('',#100,.T.);
#55=FACE_OUTER_BOUND('',#101,.T.);
#56=FACE_OUTER_BOUND('',#102,.T.);
#57=FACE_OUTER_BOUND('',#103,.T.);
#58=FACE_OUTER_BOUND('',#104,.T.);
#59=FACE_OUTER_BOUND('',#105,.T.);
#60=FACE_OUTER_BOUND('',#106,.T.);
#61=EDGE_LOOP('',(#553,#554,#555,#556));
#62=EDGE_LOOP('',(#557,#558,#559,#560));
#63=EDGE_LOOP('',(#561,#562,#563,#564,#565,#566));
#64=EDGE_LOOP('',(#567,#568,#569,#570));
#65=EDGE_LOOP('',(#571,#572,#573,#574,#575,#576));
#66=EDGE_LOOP('',(#577,#578,#579,#580,#581));
#67=EDGE_LOOP('',(#582,#583,#584,#585));
#68=EDGE_LOOP('',(#586,#587,#588,#589));
#69=EDGE_LOOP('',(#590,#591,#592,#593));
#70=EDGE_LOOP('',(#594,#595,#596,#597));
#71=EDGE_LOOP('',(#598,#599,#600,#601));
#72=EDGE_LOOP('',(#602,#603,#604,#605));
#73=EDGE_LOOP('',(#606,#607,#608,#609));
#74=EDGE_LOOP('',(#610,#611,#612,#613));
#75=EDGE_LOOP('',(#614,#615,#616,#617));
#76=EDGE_LOOP('',(#618,#619,#620,#621,#622,#623));
#77=EDGE_LOOP('',(#624,#625,#626,#627));
#78=EDGE_LOOP('',(#628,#629,#630,#631));
#79=EDGE_LOOP('',(#632,#633,#634,#635));
#80=EDGE_LOOP('',(#636,#637,#638,#639));
#81=EDGE_LOOP('',(#640,#641,#642,#643));
#82=EDGE_LOOP('',(#644,#645,#646,#647,#648,#649,#650));
#83=EDGE_LOOP('',(#651,#652,#653,#654));
#84=EDGE_LOOP('',(#655,#656,#657,#658,#659));
#85=EDGE_LOOP('',(#660,#661,#662,#663,#664));
#86=EDGE_LOOP('',(#665,#666,#667,#668));
#87=EDGE_LOOP('',(#669,#670,#671,#672,#673,#674));
#88=EDGE_LOOP('',(#675,#676,#677,#678,#679));
#89=EDGE_LOOP('',(#680,#681,#682,#683,#684,#685,#686,#687,#688,#689,#690,
#691));
#90=EDGE_LOOP('',(#692,#693,#694,#695));
#91=EDGE_LOOP('',(#696,#697,#698,#699));
#92=EDGE_LOOP('',(#700,#701,#702,#703,#704,#705,#706,#707));
#93=EDGE_LOOP('',(#708,#709,#710,#711,#712,#713,#714,#715));
#94=EDGE_LOOP('',(#716,#717,#718,#719,#720,#721,#722,#723));
#95=EDGE_LOOP('',(#724,#725,#726,#727));
#96=EDGE_LOOP('',(#728,#729,#730,#731));
#97=EDGE_LOOP('',(#732,#733,#734,#735,#736,#737,#738,#739));
#98=EDGE_LOOP('',(#740,#741,#742,#743,#744,#745,#746,#747));
#99=EDGE_LOOP('',(#748,#749,#750,#751));
#100=EDGE_LOOP('',(#752,#753,#754,#755,#756,#757,#758,#759,#760,#761,#762,
#763));
#101=EDGE_LOOP('',(#764,#765,#766,#767));
#102=EDGE_LOOP('',(#768,#769,#770,#771,#772,#773,#774,#775));
#103=EDGE_LOOP('',(#776,#777,#778,#779,#780,#781));
#104=EDGE_LOOP('',(#782,#783,#784,#785));
#105=EDGE_LOOP('',(#786,#787,#788,#789,#790,#791,#792));
#106=EDGE_LOOP('',(#793,#794,#795,#796));
#107=LINE('',#1147,#229);
#108=LINE('',#1149,#230);
#109=LINE('',#1151,#231);
#110=LINE('',#1152,#232);
#111=LINE('',#1155,#233);
#112=LINE('',#1157,#234);
#113=LINE('',#1158,#235);
#114=LINE('',#1161,#236);
#115=LINE('',#1163,#237);
#116=LINE('',#1165,#238);
#117=LINE('',#1166,#239);
#118=LINE('',#1170,#240);
#119=LINE('',#1172,#241);
#120=LINE('',#1174,#242);
#121=LINE('',#1175,#243);
#122=LINE('',#1178,#244);
#123=LINE('',#1180,#245);
#124=LINE('',#1182,#246);
#125=LINE('',#1184,#247);
#126=LINE('',#1185,#248);
#127=LINE('',#1188,#249);
#128=LINE('',#1190,#250);
#129=LINE('',#1191,#251);
#130=LINE('',#1195,#252);
#131=LINE('',#1197,#253);
#132=LINE('',#1199,#254);
#133=LINE('',#1200,#255);
#134=LINE('',#1203,#256);
#135=LINE('',#1205,#257);
#136=LINE('',#1206,#258);
#137=LINE('',#1210,#259);
#138=LINE('',#1212,#260);
#139=LINE('',#1214,#261);
#140=LINE('',#1215,#262);
#141=LINE('',#1218,#263);
#142=LINE('',#1219,#264);
#143=LINE('',#1223,#265);
#144=LINE('',#1225,#266);
#145=LINE('',#1227,#267);
#146=LINE('',#1228,#268);
#147=LINE('',#1232,#269);
#148=LINE('',#1233,#270);
#149=LINE('',#1234,#271);
#150=LINE('',#1238,#272);
#151=LINE('',#1240,#273);
#152=LINE('',#1242,#274);
#153=LINE('',#1243,#275);
#154=LINE('',#1245,#276);
#155=LINE('',#1246,#277);
#156=LINE('',#1249,#278);
#157=LINE('',#1250,#279);
#158=LINE('',#1253,#280);
#159=LINE('',#1255,#281);
#160=LINE('',#1256,#282);
#161=LINE('',#1259,#283);
#162=LINE('',#1261,#284);
#163=LINE('',#1262,#285);
#164=LINE('',#1265,#286);
#165=LINE('',#1267,#287);
#166=LINE('',#1268,#288);
#167=LINE('',#1271,#289);
#168=LINE('',#1272,#290);
#169=LINE('',#1275,#291);
#170=LINE('',#1276,#292);
#171=LINE('',#1278,#293);
#172=LINE('',#1281,#294);
#173=LINE('',#1283,#295);
#174=LINE('',#1285,#296);
#175=LINE('',#1286,#297);
#176=LINE('',#1289,#298);
#177=LINE('',#1291,#299);
#178=LINE('',#1292,#300);
#179=LINE('',#1295,#301);
#180=LINE('',#1296,#302);
#181=LINE('',#1299,#303);
#182=LINE('',#1300,#304);
#183=LINE('',#1303,#305);
#184=LINE('',#1305,#306);
#185=LINE('',#1306,#307);
#186=LINE('',#1310,#308);
#187=LINE('',#1312,#309);
#188=LINE('',#1313,#310);
#189=LINE('',#1314,#311);
#190=LINE('',#1317,#312);
#191=LINE('',#1318,#313);
#192=LINE('',#1321,#314);
#193=LINE('',#1323,#315);
#194=LINE('',#1324,#316);
#195=LINE('',#1326,#317);
#196=LINE('',#1328,#318);
#197=LINE('',#1330,#319);
#198=LINE('',#1331,#320);
#199=LINE('',#1332,#321);
#200=LINE('',#1333,#322);
#201=LINE('',#1336,#323);
#202=LINE('',#1338,#324);
#203=LINE('',#1339,#325);
#204=LINE('',#1342,#326);
#205=LINE('',#1343,#327);
#206=LINE('',#1346,#328);
#207=LINE('',#1348,#329);
#208=LINE('',#1350,#330);
#209=LINE('',#1351,#331);
#210=LINE('',#1353,#332);
#211=LINE('',#1354,#333);
#212=LINE('',#1357,#334);
#213=LINE('',#1359,#335);
#214=LINE('',#1360,#336);
#215=LINE('',#1362,#337);
#216=LINE('',#1364,#338);
#217=LINE('',#1365,#339);
#218=LINE('',#1367,#340);
#219=LINE('',#1370,#341);
#220=LINE('',#1371,#342);
#221=LINE('',#1373,#343);
#222=LINE('',#1374,#344);
#223=LINE('',#1376,#345);
#224=LINE('',#1377,#346);
#225=LINE('',#1379,#347);
#226=LINE('',#1380,#348);
#227=LINE('',#1382,#349);
#228=LINE('',#1384,#350);
#229=VECTOR('',#935,10.);
#230=VECTOR('',#936,10.);
#231=VECTOR('',#937,10.);
#232=VECTOR('',#938,10.);
#233=VECTOR('',#941,10.);
#234=VECTOR('',#942,10.);
#235=VECTOR('',#943,10.);
#236=VECTOR('',#946,10.);
#237=VECTOR('',#947,10.);
#238=VECTOR('',#948,10.);
#239=VECTOR('',#949,10.);
#240=VECTOR('',#952,10.);
#241=VECTOR('',#953,10.);
#242=VECTOR('',#954,10.);
#243=VECTOR('',#955,10.);
#244=VECTOR('',#958,10.);
#245=VECTOR('',#959,10.);
#246=VECTOR('',#960,10.);
#247=VECTOR('',#961,10.);
#248=VECTOR('',#962,10.);
#249=VECTOR('',#965,10.);
#250=VECTOR('',#966,10.);
#251=VECTOR('',#967,10.);
#252=VECTOR('',#970,10.);
#253=VECTOR('',#971,10.);
#254=VECTOR('',#972,10.);
#255=VECTOR('',#973,10.);
#256=VECTOR('',#976,10.);
#257=VECTOR('',#977,10.);
#258=VECTOR('',#978,10.);
#259=VECTOR('',#981,10.);
#260=VECTOR('',#982,10.);
#261=VECTOR('',#983,10.);
#262=VECTOR('',#984,10.);
#263=VECTOR('',#987,10.);
#264=VECTOR('',#988,10.);
#265=VECTOR('',#991,10.);
#266=VECTOR('',#992,10.);
#267=VECTOR('',#993,10.);
#268=VECTOR('',#994,10.);
#269=VECTOR('',#997,10.);
#270=VECTOR('',#998,10.);
#271=VECTOR('',#999,10.);
#272=VECTOR('',#1002,10.);
#273=VECTOR('',#1003,10.);
#274=VECTOR('',#1004,10.);
#275=VECTOR('',#1005,10.);
#276=VECTOR('',#1006,10.);
#277=VECTOR('',#1007,10.);
#278=VECTOR('',#1010,10.);
#279=VECTOR('',#1011,10.);
#280=VECTOR('',#1014,10.);
#281=VECTOR('',#1015,10.);
#282=VECTOR('',#1016,10.);
#283=VECTOR('',#1019,10.);
#284=VECTOR('',#1020,10.);
#285=VECTOR('',#1021,10.);
#286=VECTOR('',#1024,10.);
#287=VECTOR('',#1025,10.);
#288=VECTOR('',#1026,10.);
#289=VECTOR('',#1029,10.);
#290=VECTOR('',#1030,10.);
#291=VECTOR('',#1033,10.);
#292=VECTOR('',#1034,10.);
#293=VECTOR('',#1037,10.);
#294=VECTOR('',#1040,10.);
#295=VECTOR('',#1041,10.);
#296=VECTOR('',#1042,10.);
#297=VECTOR('',#1043,10.);
#298=VECTOR('',#1046,10.);
#299=VECTOR('',#1047,10.);
#300=VECTOR('',#1048,10.);
#301=VECTOR('',#1051,10.);
#302=VECTOR('',#1052,10.);
#303=VECTOR('',#1055,10.);
#304=VECTOR('',#1056,10.);
#305=VECTOR('',#1059,10.);
#306=VECTOR('',#1060,10.);
#307=VECTOR('',#1061,10.);
#308=VECTOR('',#1064,10.);
#309=VECTOR('',#1065,10.);
#310=VECTOR('',#1066,10.);
#311=VECTOR('',#1067,10.);
#312=VECTOR('',#1070,10.);
#313=VECTOR('',#1071,10.);
#314=VECTOR('',#1074,10.);
#315=VECTOR('',#1075,10.);
#316=VECTOR('',#1076,10.);
#317=VECTOR('',#1077,10.);
#318=VECTOR('',#1078,10.);
#319=VECTOR('',#1079,10.);
#320=VECTOR('',#1080,10.);
#321=VECTOR('',#1081,10.);
#322=VECTOR('',#1082,10.);
#323=VECTOR('',#1085,10.);
#324=VECTOR('',#1086,10.);
#325=VECTOR('',#1087,10.);
#326=VECTOR('',#1090,10.);
#327=VECTOR('',#1091,10.);
#328=VECTOR('',#1094,10.);
#329=VECTOR('',#1095,10.);
#330=VECTOR('',#1096,10.);
#331=VECTOR('',#1097,10.);
#332=VECTOR('',#1098,10.);
#333=VECTOR('',#1099,10.);
#334=VECTOR('',#1102,10.);
#335=VECTOR('',#1103,10.);
#336=VECTOR('',#1104,10.);
#337=VECTOR('',#1105,10.);
#338=VECTOR('',#1106,10.);
#339=VECTOR('',#1107,10.);
#340=VECTOR('',#1110,10.);
#341=VECTOR('',#1113,10.);
#342=VECTOR('',#1114,10.);
#343=VECTOR('',#1117,10.);
#344=VECTOR('',#1118,10.);
#345=VECTOR('',#1121,10.);
#346=VECTOR('',#1122,10.);
#347=VECTOR('',#1125,10.);
#348=VECTOR('',#1126,10.);
#349=VECTOR('',#1129,10.);
#350=VECTOR('',#1132,10.);
#351=VERTEX_POINT('',#1145);
#352=VERTEX_POINT('',#1146);
#353=VERTEX_POINT('',#1148);
#354=VERTEX_POINT('',#1150);
#355=VERTEX_POINT('',#1154);
#356=VERTEX_POINT('',#1156);
#357=VERTEX_POINT('',#1160);
#358=VERTEX_POINT('',#1162);
#359=VERTEX_POINT('',#1164);
#360=VERTEX_POINT('',#1168);
#361=VERTEX_POINT('',#1169);
#362=VERTEX_POINT('',#1171);
#363=VERTEX_POINT('',#1173);
#364=VERTEX_POINT('',#1177);
#365=VERTEX_POINT('',#1179);
#366=VERTEX_POINT('',#1181);
#367=VERTEX_POINT('',#1183);
#368=VERTEX_POINT('',#1187);
#369=VERTEX_POINT('',#1189);
#370=VERTEX_POINT('',#1193);
#371=VERTEX_POINT('',#1194);
#372=VERTEX_POINT('',#1196);
#373=VERTEX_POINT('',#1198);
#374=VERTEX_POINT('',#1202);
#375=VERTEX_POINT('',#1204);
#376=VERTEX_POINT('',#1208);
#377=VERTEX_POINT('',#1209);
#378=VERTEX_POINT('',#1211);
#379=VERTEX_POINT('',#1213);
#380=VERTEX_POINT('',#1217);
#381=VERTEX_POINT('',#1221);
#382=VERTEX_POINT('',#1222);
#383=VERTEX_POINT('',#1224);
#384=VERTEX_POINT('',#1226);
#385=VERTEX_POINT('',#1230);
#386=VERTEX_POINT('',#1231);
#387=VERTEX_POINT('',#1236);
#388=VERTEX_POINT('',#1237);
#389=VERTEX_POINT('',#1239);
#390=VERTEX_POINT('',#1241);
#391=VERTEX_POINT('',#1244);
#392=VERTEX_POINT('',#1248);
#393=VERTEX_POINT('',#1252);
#394=VERTEX_POINT('',#1254);
#395=VERTEX_POINT('',#1258);
#396=VERTEX_POINT('',#1260);
#397=VERTEX_POINT('',#1264);
#398=VERTEX_POINT('',#1266);
#399=VERTEX_POINT('',#1270);
#400=VERTEX_POINT('',#1274);
#401=VERTEX_POINT('',#1280);
#402=VERTEX_POINT('',#1282);
#403=VERTEX_POINT('',#1284);
#404=VERTEX_POINT('',#1288);
#405=VERTEX_POINT('',#1290);
#406=VERTEX_POINT('',#1294);
#407=VERTEX_POINT('',#1298);
#408=VERTEX_POINT('',#1302);
#409=VERTEX_POINT('',#1304);
#410=VERTEX_POINT('',#1308);
#411=VERTEX_POINT('',#1309);
#412=VERTEX_POINT('',#1311);
#413=VERTEX_POINT('',#1316);
#414=VERTEX_POINT('',#1320);
#415=VERTEX_POINT('',#1322);
#416=VERTEX_POINT('',#1325);
#417=VERTEX_POINT('',#1327);
#418=VERTEX_POINT('',#1329);
#419=VERTEX_POINT('',#1335);
#420=VERTEX_POINT('',#1337);
#421=VERTEX_POINT('',#1341);
#422=VERTEX_POINT('',#1345);
#423=VERTEX_POINT('',#1347);
#424=VERTEX_POINT('',#1349);
#425=VERTEX_POINT('',#1352);
#426=VERTEX_POINT('',#1356);
#427=VERTEX_POINT('',#1358);
#428=VERTEX_POINT('',#1361);
#429=VERTEX_POINT('',#1363);
#430=VERTEX_POINT('',#1369);
#431=EDGE_CURVE('',#351,#352,#107,.T.);
#432=EDGE_CURVE('',#353,#351,#108,.T.);
#433=EDGE_CURVE('',#354,#353,#109,.T.);
#434=EDGE_CURVE('',#352,#354,#110,.T.);
#435=EDGE_CURVE('',#355,#354,#111,.T.);
#436=EDGE_CURVE('',#356,#355,#112,.T.);
#437=EDGE_CURVE('',#356,#352,#113,.T.);
#438=EDGE_CURVE('',#357,#353,#114,.T.);
#439=EDGE_CURVE('',#357,#358,#115,.T.);
#440=EDGE_CURVE('',#359,#358,#116,.T.);
#441=EDGE_CURVE('',#355,#359,#117,.T.);
#442=EDGE_CURVE('',#360,#361,#118,.T.);
#443=EDGE_CURVE('',#362,#360,#119,.T.);
#444=EDGE_CURVE('',#363,#362,#120,.T.);
#445=EDGE_CURVE('',#361,#363,#121,.T.);
#446=EDGE_CURVE('',#364,#363,#122,.T.);
#447=EDGE_CURVE('',#365,#364,#123,.T.);
#448=EDGE_CURVE('',#366,#365,#124,.T.);
#449=EDGE_CURVE('',#366,#367,#125,.T.);
#450=EDGE_CURVE('',#361,#367,#126,.T.);
#451=EDGE_CURVE('',#368,#362,#127,.T.);
#452=EDGE_CURVE('',#369,#368,#128,.T.);
#453=EDGE_CURVE('',#364,#369,#129,.T.);
#454=EDGE_CURVE('',#370,#371,#130,.T.);
#455=EDGE_CURVE('',#370,#372,#131,.T.);
#456=EDGE_CURVE('',#373,#372,#132,.T.);
#457=EDGE_CURVE('',#373,#371,#133,.T.);
#458=EDGE_CURVE('',#372,#374,#134,.T.);
#459=EDGE_CURVE('',#374,#375,#135,.T.);
#460=EDGE_CURVE('',#373,#375,#136,.T.);
#461=EDGE_CURVE('',#376,#377,#137,.T.);
#462=EDGE_CURVE('',#377,#378,#138,.T.);
#463=EDGE_CURVE('',#378,#379,#139,.T.);
#464=EDGE_CURVE('',#379,#376,#140,.T.);
#465=EDGE_CURVE('',#380,#351,#141,.T.);
#466=EDGE_CURVE('',#357,#380,#142,.T.);
#467=EDGE_CURVE('',#381,#382,#143,.T.);
#468=EDGE_CURVE('',#381,#383,#144,.T.);
#469=EDGE_CURVE('',#384,#383,#145,.T.);
#470=EDGE_CURVE('',#382,#384,#146,.T.);
#471=EDGE_CURVE('',#385,#386,#147,.T.);
#472=EDGE_CURVE('',#386,#384,#148,.T.);
#473=EDGE_CURVE('',#383,#385,#149,.T.);
#474=EDGE_CURVE('',#387,#388,#150,.T.);
#475=EDGE_CURVE('',#388,#389,#151,.T.);
#476=EDGE_CURVE('',#389,#390,#152,.T.);
#477=EDGE_CURVE('',#390,#387,#153,.T.);
#478=EDGE_CURVE('',#375,#391,#154,.T.);
#479=EDGE_CURVE('',#391,#371,#155,.T.);
#480=EDGE_CURVE('',#392,#391,#156,.T.);
#481=EDGE_CURVE('',#392,#370,#157,.T.);
#482=EDGE_CURVE('',#393,#356,#158,.T.);
#483=EDGE_CURVE('',#394,#393,#159,.T.);
#484=EDGE_CURVE('',#394,#380,#160,.T.);
#485=EDGE_CURVE('',#393,#395,#161,.T.);
#486=EDGE_CURVE('',#396,#395,#162,.T.);
#487=EDGE_CURVE('',#394,#396,#163,.T.);
#488=EDGE_CURVE('',#397,#376,#164,.T.);
#489=EDGE_CURVE('',#398,#379,#165,.T.);
#490=EDGE_CURVE('',#397,#398,#166,.T.);
#491=EDGE_CURVE('',#399,#397,#167,.T.);
#492=EDGE_CURVE('',#399,#377,#168,.T.);
#493=EDGE_CURVE('',#360,#400,#169,.T.);
#494=EDGE_CURVE('',#368,#400,#170,.T.);
#495=EDGE_CURVE('',#400,#367,#171,.T.);
#496=EDGE_CURVE('',#401,#366,#172,.T.);
#497=EDGE_CURVE('',#401,#402,#173,.T.);
#498=EDGE_CURVE('',#403,#402,#174,.T.);
#499=EDGE_CURVE('',#368,#403,#175,.T.);
#500=EDGE_CURVE('',#386,#404,#176,.T.);
#501=EDGE_CURVE('',#405,#385,#177,.T.);
#502=EDGE_CURVE('',#404,#405,#178,.T.);
#503=EDGE_CURVE('',#382,#406,#179,.T.);
#504=EDGE_CURVE('',#406,#404,#180,.T.);
#505=EDGE_CURVE('',#407,#381,#181,.T.);
#506=EDGE_CURVE('',#405,#407,#182,.T.);
#507=EDGE_CURVE('',#408,#406,#183,.T.);
#508=EDGE_CURVE('',#409,#408,#184,.T.);
#509=EDGE_CURVE('',#409,#382,#185,.T.);
#510=EDGE_CURVE('',#410,#411,#186,.T.);
#511=EDGE_CURVE('',#412,#410,#187,.T.);
#512=EDGE_CURVE('',#412,#378,#188,.T.);
#513=EDGE_CURVE('',#411,#399,#189,.T.);
#514=EDGE_CURVE('',#413,#412,#190,.T.);
#515=EDGE_CURVE('',#398,#413,#191,.T.);
#516=EDGE_CURVE('',#411,#414,#192,.T.);
#517=EDGE_CURVE('',#414,#415,#193,.T.);
#518=EDGE_CURVE('',#415,#409,#194,.T.);
#519=EDGE_CURVE('',#408,#416,#195,.T.);
#520=EDGE_CURVE('',#416,#417,#196,.T.);
#521=EDGE_CURVE('',#417,#418,#197,.T.);
#522=EDGE_CURVE('',#418,#401,#198,.T.);
#523=EDGE_CURVE('',#365,#410,#199,.T.);
#524=EDGE_CURVE('',#374,#392,#200,.T.);
#525=EDGE_CURVE('',#413,#419,#201,.T.);
#526=EDGE_CURVE('',#420,#419,#202,.T.);
#527=EDGE_CURVE('',#398,#420,#203,.T.);
#528=EDGE_CURVE('',#369,#421,#204,.T.);
#529=EDGE_CURVE('',#419,#421,#205,.T.);
#530=EDGE_CURVE('',#388,#422,#206,.T.);
#531=EDGE_CURVE('',#423,#387,#207,.T.);
#532=EDGE_CURVE('',#424,#423,#208,.T.);
#533=EDGE_CURVE('',#415,#424,#209,.T.);
#534=EDGE_CURVE('',#425,#414,#210,.T.);
#535=EDGE_CURVE('',#422,#425,#211,.T.);
#536=EDGE_CURVE('',#423,#426,#212,.T.);
#537=EDGE_CURVE('',#426,#427,#213,.T.);
#538=EDGE_CURVE('',#427,#396,#214,.T.);
#539=EDGE_CURVE('',#395,#428,#215,.T.);
#540=EDGE_CURVE('',#428,#429,#216,.T.);
#541=EDGE_CURVE('',#429,#424,#217,.T.);
#542=EDGE_CURVE('',#390,#426,#218,.T.);
#543=EDGE_CURVE('',#430,#422,#219,.T.);
#544=EDGE_CURVE('',#430,#389,#220,.T.);
#545=EDGE_CURVE('',#402,#430,#221,.T.);
#546=EDGE_CURVE('',#427,#418,#222,.T.);
#547=EDGE_CURVE('',#425,#420,#223,.T.);
#548=EDGE_CURVE('',#421,#403,#224,.T.);
#549=EDGE_CURVE('',#381,#429,#225,.T.);
#550=EDGE_CURVE('',#407,#428,#226,.T.);
#551=EDGE_CURVE('',#416,#359,#227,.T.);
#552=EDGE_CURVE('',#417,#358,#228,.T.);
#553=ORIENTED_EDGE('',*,*,#431,.F.);
#554=ORIENTED_EDGE('',*,*,#432,.F.);
#555=ORIENTED_EDGE('',*,*,#433,.F.);
#556=ORIENTED_EDGE('',*,*,#434,.F.);
#557=ORIENTED_EDGE('',*,*,#434,.T.);
#558=ORIENTED_EDGE('',*,*,#435,.F.);
#559=ORIENTED_EDGE('',*,*,#436,.F.);
#560=ORIENTED_EDGE('',*,*,#437,.T.);
#561=ORIENTED_EDGE('',*,*,#433,.T.);
#562=ORIENTED_EDGE('',*,*,#438,.F.);
#563=ORIENTED_EDGE('',*,*,#439,.T.);
#564=ORIENTED_EDGE('',*,*,#440,.F.);
#565=ORIENTED_EDGE('',*,*,#441,.F.);
#566=ORIENTED_EDGE('',*,*,#435,.T.);
#567=ORIENTED_EDGE('',*,*,#442,.F.);
#568=ORIENTED_EDGE('',*,*,#443,.F.);
#569=ORIENTED_EDGE('',*,*,#444,.F.);
#570=ORIENTED_EDGE('',*,*,#445,.F.);
#571=ORIENTED_EDGE('',*,*,#445,.T.);
#572=ORIENTED_EDGE('',*,*,#446,.F.);
#573=ORIENTED_EDGE('',*,*,#447,.F.);
#574=ORIENTED_EDGE('',*,*,#448,.F.);
#575=ORIENTED_EDGE('',*,*,#449,.T.);
#576=ORIENTED_EDGE('',*,*,#450,.F.);
#577=ORIENTED_EDGE('',*,*,#444,.T.);
#578=ORIENTED_EDGE('',*,*,#451,.F.);
#579=ORIENTED_EDGE('',*,*,#452,.F.);
#580=ORIENTED_EDGE('',*,*,#453,.F.);
#581=ORIENTED_EDGE('',*,*,#446,.T.);
#582=ORIENTED_EDGE('',*,*,#454,.F.);
#583=ORIENTED_EDGE('',*,*,#455,.T.);
#584=ORIENTED_EDGE('',*,*,#456,.F.);
#585=ORIENTED_EDGE('',*,*,#457,.T.);
#586=ORIENTED_EDGE('',*,*,#456,.T.);
#587=ORIENTED_EDGE('',*,*,#458,.T.);
#588=ORIENTED_EDGE('',*,*,#459,.T.);
#589=ORIENTED_EDGE('',*,*,#460,.F.);
#590=ORIENTED_EDGE('',*,*,#461,.T.);
#591=ORIENTED_EDGE('',*,*,#462,.T.);
#592=ORIENTED_EDGE('',*,*,#463,.T.);
#593=ORIENTED_EDGE('',*,*,#464,.T.);
#594=ORIENTED_EDGE('',*,*,#432,.T.);
#595=ORIENTED_EDGE('',*,*,#465,.F.);
#596=ORIENTED_EDGE('',*,*,#466,.F.);
#597=ORIENTED_EDGE('',*,*,#438,.T.);
#598=ORIENTED_EDGE('',*,*,#467,.F.);
#599=ORIENTED_EDGE('',*,*,#468,.T.);
#600=ORIENTED_EDGE('',*,*,#469,.F.);
#601=ORIENTED_EDGE('',*,*,#470,.F.);
#602=ORIENTED_EDGE('',*,*,#471,.T.);
#603=ORIENTED_EDGE('',*,*,#472,.T.);
#604=ORIENTED_EDGE('',*,*,#469,.T.);
#605=ORIENTED_EDGE('',*,*,#473,.T.);
#606=ORIENTED_EDGE('',*,*,#474,.T.);
#607=ORIENTED_EDGE('',*,*,#475,.T.);
#608=ORIENTED_EDGE('',*,*,#476,.T.);
#609=ORIENTED_EDGE('',*,*,#477,.T.);
#610=ORIENTED_EDGE('',*,*,#478,.T.);
#611=ORIENTED_EDGE('',*,*,#479,.T.);
#612=ORIENTED_EDGE('',*,*,#457,.F.);
#613=ORIENTED_EDGE('',*,*,#460,.T.);
#614=ORIENTED_EDGE('',*,*,#454,.T.);
#615=ORIENTED_EDGE('',*,*,#479,.F.);
#616=ORIENTED_EDGE('',*,*,#480,.F.);
#617=ORIENTED_EDGE('',*,*,#481,.T.);
#618=ORIENTED_EDGE('',*,*,#431,.T.);
#619=ORIENTED_EDGE('',*,*,#437,.F.);
#620=ORIENTED_EDGE('',*,*,#482,.F.);
#621=ORIENTED_EDGE('',*,*,#483,.F.);
#622=ORIENTED_EDGE('',*,*,#484,.T.);
#623=ORIENTED_EDGE('',*,*,#465,.T.);
#624=ORIENTED_EDGE('',*,*,#483,.T.);
#625=ORIENTED_EDGE('',*,*,#485,.T.);
#626=ORIENTED_EDGE('',*,*,#486,.F.);
#627=ORIENTED_EDGE('',*,*,#487,.F.);
#628=ORIENTED_EDGE('',*,*,#488,.T.);
#629=ORIENTED_EDGE('',*,*,#464,.F.);
#630=ORIENTED_EDGE('',*,*,#489,.F.);
#631=ORIENTED_EDGE('',*,*,#490,.F.);
#632=ORIENTED_EDGE('',*,*,#488,.F.);
#633=ORIENTED_EDGE('',*,*,#491,.F.);
#634=ORIENTED_EDGE('',*,*,#492,.T.);
#635=ORIENTED_EDGE('',*,*,#461,.F.);
#636=ORIENTED_EDGE('',*,*,#443,.T.);
#637=ORIENTED_EDGE('',*,*,#493,.T.);
#638=ORIENTED_EDGE('',*,*,#494,.F.);
#639=ORIENTED_EDGE('',*,*,#451,.T.);
#640=ORIENTED_EDGE('',*,*,#442,.T.);
#641=ORIENTED_EDGE('',*,*,#450,.T.);
#642=ORIENTED_EDGE('',*,*,#495,.F.);
#643=ORIENTED_EDGE('',*,*,#493,.F.);
#644=ORIENTED_EDGE('',*,*,#494,.T.);
#645=ORIENTED_EDGE('',*,*,#495,.T.);
#646=ORIENTED_EDGE('',*,*,#449,.F.);
#647=ORIENTED_EDGE('',*,*,#496,.F.);
#648=ORIENTED_EDGE('',*,*,#497,.T.);
#649=ORIENTED_EDGE('',*,*,#498,.F.);
#650=ORIENTED_EDGE('',*,*,#499,.F.);
#651=ORIENTED_EDGE('',*,*,#500,.F.);
#652=ORIENTED_EDGE('',*,*,#471,.F.);
#653=ORIENTED_EDGE('',*,*,#501,.F.);
#654=ORIENTED_EDGE('',*,*,#502,.F.);
#655=ORIENTED_EDGE('',*,*,#503,.F.);
#656=ORIENTED_EDGE('',*,*,#470,.T.);
#657=ORIENTED_EDGE('',*,*,#472,.F.);
#658=ORIENTED_EDGE('',*,*,#500,.T.);
#659=ORIENTED_EDGE('',*,*,#504,.F.);
#660=ORIENTED_EDGE('',*,*,#505,.F.);
#661=ORIENTED_EDGE('',*,*,#506,.F.);
#662=ORIENTED_EDGE('',*,*,#501,.T.);
#663=ORIENTED_EDGE('',*,*,#473,.F.);
#664=ORIENTED_EDGE('',*,*,#468,.F.);
#665=ORIENTED_EDGE('',*,*,#503,.T.);
#666=ORIENTED_EDGE('',*,*,#507,.F.);
#667=ORIENTED_EDGE('',*,*,#508,.F.);
#668=ORIENTED_EDGE('',*,*,#509,.T.);
#669=ORIENTED_EDGE('',*,*,#510,.F.);
#670=ORIENTED_EDGE('',*,*,#511,.F.);
#671=ORIENTED_EDGE('',*,*,#512,.T.);
#672=ORIENTED_EDGE('',*,*,#462,.F.);
#673=ORIENTED_EDGE('',*,*,#492,.F.);
#674=ORIENTED_EDGE('',*,*,#513,.F.);
#675=ORIENTED_EDGE('',*,*,#512,.F.);
#676=ORIENTED_EDGE('',*,*,#514,.F.);
#677=ORIENTED_EDGE('',*,*,#515,.F.);
#678=ORIENTED_EDGE('',*,*,#489,.T.);
#679=ORIENTED_EDGE('',*,*,#463,.F.);
#680=ORIENTED_EDGE('',*,*,#510,.T.);
#681=ORIENTED_EDGE('',*,*,#516,.T.);
#682=ORIENTED_EDGE('',*,*,#517,.T.);
#683=ORIENTED_EDGE('',*,*,#518,.T.);
#684=ORIENTED_EDGE('',*,*,#508,.T.);
#685=ORIENTED_EDGE('',*,*,#519,.T.);
#686=ORIENTED_EDGE('',*,*,#520,.T.);
#687=ORIENTED_EDGE('',*,*,#521,.T.);
#688=ORIENTED_EDGE('',*,*,#522,.T.);
#689=ORIENTED_EDGE('',*,*,#496,.T.);
#690=ORIENTED_EDGE('',*,*,#448,.T.);
#691=ORIENTED_EDGE('',*,*,#523,.T.);
#692=ORIENTED_EDGE('',*,*,#524,.F.);
#693=ORIENTED_EDGE('',*,*,#458,.F.);
#694=ORIENTED_EDGE('',*,*,#455,.F.);
#695=ORIENTED_EDGE('',*,*,#481,.F.);
#696=ORIENTED_EDGE('',*,*,#515,.T.);
#697=ORIENTED_EDGE('',*,*,#525,.T.);
#698=ORIENTED_EDGE('',*,*,#526,.F.);
#699=ORIENTED_EDGE('',*,*,#527,.F.);
#700=ORIENTED_EDGE('',*,*,#511,.T.);
#701=ORIENTED_EDGE('',*,*,#523,.F.);
#702=ORIENTED_EDGE('',*,*,#447,.T.);
#703=ORIENTED_EDGE('',*,*,#453,.T.);
#704=ORIENTED_EDGE('',*,*,#528,.T.);
#705=ORIENTED_EDGE('',*,*,#529,.F.);
#706=ORIENTED_EDGE('',*,*,#525,.F.);
#707=ORIENTED_EDGE('',*,*,#514,.T.);
#708=ORIENTED_EDGE('',*,*,#530,.F.);
#709=ORIENTED_EDGE('',*,*,#474,.F.);
#710=ORIENTED_EDGE('',*,*,#531,.F.);
#711=ORIENTED_EDGE('',*,*,#532,.F.);
#712=ORIENTED_EDGE('',*,*,#533,.F.);
#713=ORIENTED_EDGE('',*,*,#517,.F.);
#714=ORIENTED_EDGE('',*,*,#534,.F.);
#715=ORIENTED_EDGE('',*,*,#535,.F.);
#716=ORIENTED_EDGE('',*,*,#532,.T.);
#717=ORIENTED_EDGE('',*,*,#536,.T.);
#718=ORIENTED_EDGE('',*,*,#537,.T.);
#719=ORIENTED_EDGE('',*,*,#538,.T.);
#720=ORIENTED_EDGE('',*,*,#486,.T.);
#721=ORIENTED_EDGE('',*,*,#539,.T.);
#722=ORIENTED_EDGE('',*,*,#540,.T.);
#723=ORIENTED_EDGE('',*,*,#541,.T.);
#724=ORIENTED_EDGE('',*,*,#531,.T.);
#725=ORIENTED_EDGE('',*,*,#477,.F.);
#726=ORIENTED_EDGE('',*,*,#542,.T.);
#727=ORIENTED_EDGE('',*,*,#536,.F.);
#728=ORIENTED_EDGE('',*,*,#530,.T.);
#729=ORIENTED_EDGE('',*,*,#543,.F.);
#730=ORIENTED_EDGE('',*,*,#544,.T.);
#731=ORIENTED_EDGE('',*,*,#475,.F.);
#732=ORIENTED_EDGE('',*,*,#542,.F.);
#733=ORIENTED_EDGE('',*,*,#476,.F.);
#734=ORIENTED_EDGE('',*,*,#544,.F.);
#735=ORIENTED_EDGE('',*,*,#545,.F.);
#736=ORIENTED_EDGE('',*,*,#497,.F.);
#737=ORIENTED_EDGE('',*,*,#522,.F.);
#738=ORIENTED_EDGE('',*,*,#546,.F.);
#739=ORIENTED_EDGE('',*,*,#537,.F.);
#740=ORIENTED_EDGE('',*,*,#535,.T.);
#741=ORIENTED_EDGE('',*,*,#547,.T.);
#742=ORIENTED_EDGE('',*,*,#526,.T.);
#743=ORIENTED_EDGE('',*,*,#529,.T.);
#744=ORIENTED_EDGE('',*,*,#548,.T.);
#745=ORIENTED_EDGE('',*,*,#498,.T.);
#746=ORIENTED_EDGE('',*,*,#545,.T.);
#747=ORIENTED_EDGE('',*,*,#543,.T.);
#748=ORIENTED_EDGE('',*,*,#505,.T.);
#749=ORIENTED_EDGE('',*,*,#549,.T.);
#750=ORIENTED_EDGE('',*,*,#540,.F.);
#751=ORIENTED_EDGE('',*,*,#550,.F.);
#752=ORIENTED_EDGE('',*,*,#441,.T.);
#753=ORIENTED_EDGE('',*,*,#551,.F.);
#754=ORIENTED_EDGE('',*,*,#519,.F.);
#755=ORIENTED_EDGE('',*,*,#507,.T.);
#756=ORIENTED_EDGE('',*,*,#504,.T.);
#757=ORIENTED_EDGE('',*,*,#502,.T.);
#758=ORIENTED_EDGE('',*,*,#506,.T.);
#759=ORIENTED_EDGE('',*,*,#550,.T.);
#760=ORIENTED_EDGE('',*,*,#539,.F.);
#761=ORIENTED_EDGE('',*,*,#485,.F.);
#762=ORIENTED_EDGE('',*,*,#482,.T.);
#763=ORIENTED_EDGE('',*,*,#436,.T.);
#764=ORIENTED_EDGE('',*,*,#440,.T.);
#765=ORIENTED_EDGE('',*,*,#552,.F.);
#766=ORIENTED_EDGE('',*,*,#520,.F.);
#767=ORIENTED_EDGE('',*,*,#551,.T.);
#768=ORIENTED_EDGE('',*,*,#466,.T.);
#769=ORIENTED_EDGE('',*,*,#484,.F.);
#770=ORIENTED_EDGE('',*,*,#487,.T.);
#771=ORIENTED_EDGE('',*,*,#538,.F.);
#772=ORIENTED_EDGE('',*,*,#546,.T.);
#773=ORIENTED_EDGE('',*,*,#521,.F.);
#774=ORIENTED_EDGE('',*,*,#552,.T.);
#775=ORIENTED_EDGE('',*,*,#439,.F.);
#776=ORIENTED_EDGE('',*,*,#467,.T.);
#777=ORIENTED_EDGE('',*,*,#509,.F.);
#778=ORIENTED_EDGE('',*,*,#518,.F.);
#779=ORIENTED_EDGE('',*,*,#533,.T.);
#780=ORIENTED_EDGE('',*,*,#541,.F.);
#781=ORIENTED_EDGE('',*,*,#549,.F.);
#782=ORIENTED_EDGE('',*,*,#452,.T.);
#783=ORIENTED_EDGE('',*,*,#499,.T.);
#784=ORIENTED_EDGE('',*,*,#548,.F.);
#785=ORIENTED_EDGE('',*,*,#528,.F.);
#786=ORIENTED_EDGE('',*,*,#490,.T.);
#787=ORIENTED_EDGE('',*,*,#527,.T.);
#788=ORIENTED_EDGE('',*,*,#547,.F.);
#789=ORIENTED_EDGE('',*,*,#534,.T.);
#790=ORIENTED_EDGE('',*,*,#516,.F.);
#791=ORIENTED_EDGE('',*,*,#513,.T.);
#792=ORIENTED_EDGE('',*,*,#491,.T.);
#793=ORIENTED_EDGE('',*,*,#480,.T.);
#794=ORIENTED_EDGE('',*,*,#478,.F.);
#795=ORIENTED_EDGE('',*,*,#459,.F.);
#796=ORIENTED_EDGE('',*,*,#524,.T.);
#797=PLANE('',#887);
#798=PLANE('',#888);
#799=PLANE('',#889);
#800=PLANE('',#890);
#801=PLANE('',#891);
#802=PLANE('',#892);
#803=PLANE('',#893);
#804=PLANE('',#894);
#805=PLANE('',#895);
#806=PLANE('',#896);
#807=PLANE('',#897);
#808=PLANE('',#898);
#809=PLANE('',#899);
#810=PLANE('',#900);
#811=PLANE('',#901);
#812=PLANE('',#902);
#813=PLANE('',#903);
#814=PLANE('',#904);
#815=PLANE('',#905);
#816=PLANE('',#906);
#817=PLANE('',#907);
#818=PLANE('',#908);
#819=PLANE('',#909);
#820=PLANE('',#910);
#821=PLANE('',#911);
#822=PLANE('',#912);
#823=PLANE('',#913);
#824=PLANE('',#914);
#825=PLANE('',#915);
#826=PLANE('',#916);
#827=PLANE('',#917);
#828=PLANE('',#918);
#829=PLANE('',#919);
#830=PLANE('',#920);
#831=PLANE('',#921);
#832=PLANE('',#922);
#833=PLANE('',#923);
#834=PLANE('',#924);
#835=PLANE('',#925);
#836=PLANE('',#926);
#837=PLANE('',#927);
#838=PLANE('',#928);
#839=PLANE('',#929);
#840=PLANE('',#930);
#841=ADVANCED_FACE('',(#17),#797,.F.);
#842=ADVANCED_FACE('',(#18),#798,.T.);
#843=ADVANCED_FACE('',(#19),#799,.T.);
#844=ADVANCED_FACE('',(#20),#800,.F.);
#845=ADVANCED_FACE('',(#21),#801,.T.);
#846=ADVANCED_FACE('',(#22),#802,.T.);
#847=ADVANCED_FACE('',(#23),#803,.T.);
#848=ADVANCED_FACE('',(#24),#804,.T.);
#849=ADVANCED_FACE('',(#25),#805,.T.);
#850=ADVANCED_FACE('',(#26),#806,.T.);
#851=ADVANCED_FACE('',(#27),#807,.T.);
#852=ADVANCED_FACE('',(#28),#808,.T.);
#853=ADVANCED_FACE('',(#29,#15),#809,.T.);
#854=ADVANCED_FACE('',(#30),#810,.T.);
#855=ADVANCED_FACE('',(#31),#811,.T.);
#856=ADVANCED_FACE('',(#32),#812,.T.);
#857=ADVANCED_FACE('',(#33),#813,.T.);
#858=ADVANCED_FACE('',(#34),#814,.T.);
#859=ADVANCED_FACE('',(#35),#815,.T.);
#860=ADVANCED_FACE('',(#36),#816,.T.);
#861=ADVANCED_FACE('',(#37),#817,.T.);
#862=ADVANCED_FACE('',(#38),#818,.T.);
#863=ADVANCED_FACE('',(#39),#819,.T.);
#864=ADVANCED_FACE('',(#40),#820,.T.);
#865=ADVANCED_FACE('',(#41),#821,.T.);
#866=ADVANCED_FACE('',(#42),#822,.T.);
#867=ADVANCED_FACE('',(#43),#823,.T.);
#868=ADVANCED_FACE('',(#44,#16),#824,.F.);
#869=ADVANCED_FACE('',(#45),#825,.T.);
#870=ADVANCED_FACE('',(#46),#826,.T.);
#871=ADVANCED_FACE('',(#47),#827,.F.);
#872=ADVANCED_FACE('',(#48),#828,.T.);
#873=ADVANCED_FACE('',(#49),#829,.T.);
#874=ADVANCED_FACE('',(#50),#830,.T.);
#875=ADVANCED_FACE('',(#51),#831,.F.);
#876=ADVANCED_FACE('',(#52),#832,.T.);
#877=ADVANCED_FACE('',(#53),#833,.T.);
#878=ADVANCED_FACE('',(#54),#834,.T.);
#879=ADVANCED_FACE('',(#55),#835,.T.);
#880=ADVANCED_FACE('',(#56),#836,.T.);
#881=ADVANCED_FACE('',(#57),#837,.T.);
#882=ADVANCED_FACE('',(#58),#838,.T.);
#883=ADVANCED_FACE('',(#59),#839,.T.);
#884=ADVANCED_FACE('',(#60),#840,.T.);
#885=CLOSED_SHELL('',(#841,#842,#843,#844,#845,#846,#847,#848,#849,#850,
#851,#852,#853,#854,#855,#856,#857,#858,#859,#860,#861,#862,#863,#864,#865,
#866,#867,#868,#869,#870,#871,#872,#873,#874,#875,#876,#877,#878,#879,#880,
#881,#882,#883,#884));
#886=AXIS2_PLACEMENT_3D('',#1143,#931,#932);
#887=AXIS2_PLACEMENT_3D('',#1144,#933,#934);
#888=AXIS2_PLACEMENT_3D('',#1153,#939,#940);
#889=AXIS2_PLACEMENT_3D('',#1159,#944,#945);
#890=AXIS2_PLACEMENT_3D('',#1167,#950,#951);
#891=AXIS2_PLACEMENT_3D('',#1176,#956,#957);
#892=AXIS2_PLACEMENT_3D('',#1186,#963,#964);
#893=AXIS2_PLACEMENT_3D('',#1192,#968,#969);
#894=AXIS2_PLACEMENT_3D('',#1201,#974,#975);
#895=AXIS2_PLACEMENT_3D('',#1207,#979,#980);
#896=AXIS2_PLACEMENT_3D('',#1216,#985,#986);
#897=AXIS2_PLACEMENT_3D('',#1220,#989,#990);
#898=AXIS2_PLACEMENT_3D('',#1229,#995,#996);
#899=AXIS2_PLACEMENT_3D('',#1235,#1000,#1001);
#900=AXIS2_PLACEMENT_3D('',#1247,#1008,#1009);
#901=AXIS2_PLACEMENT_3D('',#1251,#1012,#1013);
#902=AXIS2_PLACEMENT_3D('',#1257,#1017,#1018);
#903=AXIS2_PLACEMENT_3D('',#1263,#1022,#1023);
#904=AXIS2_PLACEMENT_3D('',#1269,#1027,#1028);
#905=AXIS2_PLACEMENT_3D('',#1273,#1031,#1032);
#906=AXIS2_PLACEMENT_3D('',#1277,#1035,#1036);
#907=AXIS2_PLACEMENT_3D('',#1279,#1038,#1039);
#908=AXIS2_PLACEMENT_3D('',#1287,#1044,#1045);
#909=AXIS2_PLACEMENT_3D('',#1293,#1049,#1050);
#910=AXIS2_PLACEMENT_3D('',#1297,#1053,#1054);
#911=AXIS2_PLACEMENT_3D('',#1301,#1057,#1058);
#912=AXIS2_PLACEMENT_3D('',#1307,#1062,#1063);
#913=AXIS2_PLACEMENT_3D('',#1315,#1068,#1069);
#914=AXIS2_PLACEMENT_3D('',#1319,#1072,#1073);
#915=AXIS2_PLACEMENT_3D('',#1334,#1083,#1084);
#916=AXIS2_PLACEMENT_3D('',#1340,#1088,#1089);
#917=AXIS2_PLACEMENT_3D('',#1344,#1092,#1093);
#918=AXIS2_PLACEMENT_3D('',#1355,#1100,#1101);
#919=AXIS2_PLACEMENT_3D('',#1366,#1108,#1109);
#920=AXIS2_PLACEMENT_3D('',#1368,#1111,#1112);
#921=AXIS2_PLACEMENT_3D('',#1372,#1115,#1116);
#922=AXIS2_PLACEMENT_3D('',#1375,#1119,#1120);
#923=AXIS2_PLACEMENT_3D('',#1378,#1123,#1124);
#924=AXIS2_PLACEMENT_3D('',#1381,#1127,#1128);
#925=AXIS2_PLACEMENT_3D('',#1383,#1130,#1131);
#926=AXIS2_PLACEMENT_3D('',#1385,#1133,#1134);
#927=AXIS2_PLACEMENT_3D('',#1386,#1135,#1136);
#928=AXIS2_PLACEMENT_3D('',#1387,#1137,#1138);
#929=AXIS2_PLACEMENT_3D('',#1388,#1139,#1140);
#930=AXIS2_PLACEMENT_3D('',#1389,#1141,#1142);
#931=DIRECTION('axis',(0.,0.,1.));
#932=DIRECTION('refdir',(1.,0.,0.));
#933=DIRECTION('center_axis',(0.,-1.,0.));
#934=DIRECTION('ref_axis',(0.,0.,-1.));
#935=DIRECTION('',(1.,0.,0.));
#936=DIRECTION('',(0.,0.,-1.));
#937=DIRECTION('',(-1.,0.,0.));
#938=DIRECTION('',(0.,0.,1.));
#939=DIRECTION('center_axis',(1.,0.,0.));
#940=DIRECTION('ref_axis',(0.,-1.,0.));
#941=DIRECTION('',(0.,1.,0.));
#942=DIRECTION('',(0.,0.,1.));
#943=DIRECTION('',(0.,1.,0.));
#944=DIRECTION('center_axis',(0.,0.,1.));
#945=DIRECTION('ref_axis',(-1.,0.,0.));
#946=DIRECTION('',(0.,1.,0.));
#947=DIRECTION('',(-1.,0.,0.));
#948=DIRECTION('',(0.,1.,0.));
#949=DIRECTION('',(-1.,0.,0.));
#950=DIRECTION('center_axis',(0.,1.,0.));
#951=DIRECTION('ref_axis',(0.,0.,1.));
#952=DIRECTION('',(1.,0.,0.));
#953=DIRECTION('',(0.,0.,1.));
#954=DIRECTION('',(-1.,0.,0.));
#955=DIRECTION('',(0.,0.,-1.));
#956=DIRECTION('center_axis',(1.,0.,0.));
#957=DIRECTION('ref_axis',(0.,-1.,0.));
#958=DIRECTION('',(0.,-1.,0.));
#959=DIRECTION('',(0.,0.,-1.));
#960=DIRECTION('',(0.,1.,0.));
#961=DIRECTION('',(0.,0.,-1.));
#962=DIRECTION('',(0.,1.,0.));
#963=DIRECTION('center_axis',(0.,0.,-1.));
#964=DIRECTION('ref_axis',(-1.,0.,0.));
#965=DIRECTION('',(0.,-1.,0.));
#966=DIRECTION('',(0.,-1.,0.));
#967=DIRECTION('',(-1.,0.,0.));
#968=DIRECTION('center_axis',(0.,-1.,0.));
#969=DIRECTION('ref_axis',(0.,0.,-1.));
#970=DIRECTION('',(0.,0.,1.));
#971=DIRECTION('',(1.,0.,0.));
#972=DIRECTION('',(0.,0.,-1.));
#973=DIRECTION('',(-1.,0.,0.));
#974=DIRECTION('center_axis',(-1.,0.,0.));
#975=DIRECTION('ref_axis',(0.,-1.,0.));
#976=DIRECTION('',(0.,-1.,0.));
#977=DIRECTION('',(0.,0.,1.));
#978=DIRECTION('',(0.,-1.,0.));
#979=DIRECTION('center_axis',(0.,-1.,0.));
#980=DIRECTION('ref_axis',(0.,0.,-1.));
#981=DIRECTION('',(-1.,0.,0.));
#982=DIRECTION('',(0.,0.,-1.));
#983=DIRECTION('',(1.,0.,0.));
#984=DIRECTION('',(0.,0.,1.));
#985=DIRECTION('center_axis',(-1.,0.,0.));
#986=DIRECTION('ref_axis',(0.,0.,1.));
#987=DIRECTION('',(0.,1.,0.));
#988=DIRECTION('',(0.,0.,-1.));
#989=DIRECTION('center_axis',(1.,0.,0.));
#990=DIRECTION('ref_axis',(0.,0.,-1.));
#991=DIRECTION('',(0.,0.,1.));
#992=DIRECTION('',(0.,1.,0.));
#993=DIRECTION('',(0.,0.,-1.));
#994=DIRECTION('',(0.,1.,0.));
#995=DIRECTION('center_axis',(0.,1.,0.));
#996=DIRECTION('ref_axis',(0.,0.,1.));
#997=DIRECTION('',(0.,0.,1.));
#998=DIRECTION('',(1.,0.,0.));
#999=DIRECTION('',(-1.,0.,0.));
#1000=DIRECTION('center_axis',(0.,0.,1.));
#1001=DIRECTION('ref_axis',(1.,0.,0.));
#1002=DIRECTION('',(0.,1.,0.));
#1003=DIRECTION('',(-1.,0.,0.));
#1004=DIRECTION('',(0.,-1.,0.));
#1005=DIRECTION('',(1.,0.,0.));
#1006=DIRECTION('',(-1.,0.,0.));
#1007=DIRECTION('',(0.,1.,0.));
#1008=DIRECTION('center_axis',(1.,0.,0.));
#1009=DIRECTION('ref_axis',(0.,0.,-1.));
#1010=DIRECTION('',(0.,0.,1.));
#1011=DIRECTION('',(0.,1.,0.));
#1012=DIRECTION('center_axis',(0.,0.,-1.));
#1013=DIRECTION('ref_axis',(-1.,0.,0.));
#1014=DIRECTION('',(1.,0.,0.));
#1015=DIRECTION('',(0.,-1.,0.));
#1016=DIRECTION('',(1.,0.,0.));
#1017=DIRECTION('center_axis',(1.,0.,0.));
#1018=DIRECTION('ref_axis',(0.,-1.,0.));
#1019=DIRECTION('',(0.,0.,-1.));
#1020=DIRECTION('',(0.,-1.,0.));
#1021=DIRECTION('',(0.,0.,-1.));
#1022=DIRECTION('center_axis',(1.,0.,0.));
#1023=DIRECTION('ref_axis',(0.,-1.,0.));
#1024=DIRECTION('',(0.,-1.,0.));
#1025=DIRECTION('',(0.,-1.,0.));
#1026=DIRECTION('',(0.,0.,-1.));
#1027=DIRECTION('center_axis',(0.,0.,1.));
#1028=DIRECTION('ref_axis',(-1.,0.,0.));
#1029=DIRECTION('',(1.,0.,0.));
#1030=DIRECTION('',(0.,-1.,0.));
#1031=DIRECTION('center_axis',(-1.,0.,0.));
#1032=DIRECTION('ref_axis',(0.,1.,0.));
#1033=DIRECTION('',(0.,1.,0.));
#1034=DIRECTION('',(0.,0.,1.));
#1035=DIRECTION('center_axis',(0.,0.,1.));
#1036=DIRECTION('ref_axis',(-1.,0.,0.));
#1037=DIRECTION('',(1.,0.,0.));
#1038=DIRECTION('center_axis',(0.,-1.,0.));
#1039=DIRECTION('ref_axis',(-1.,0.,0.));
#1040=DIRECTION('',(1.,0.,0.));
#1041=DIRECTION('',(0.,0.,-1.));
#1042=DIRECTION('',(-1.,0.,0.));
#1043=DIRECTION('',(0.,0.,-1.));
#1044=DIRECTION('center_axis',(-1.,0.,0.));
#1045=DIRECTION('ref_axis',(0.,1.,0.));
#1046=DIRECTION('',(0.,-1.,0.));
#1047=DIRECTION('',(0.,1.,0.));
#1048=DIRECTION('',(0.,0.,-1.));
#1049=DIRECTION('center_axis',(0.,0.,1.));
#1050=DIRECTION('ref_axis',(-1.,0.,0.));
#1051=DIRECTION('',(0.,-1.,0.));
#1052=DIRECTION('',(-1.,0.,0.));
#1053=DIRECTION('center_axis',(0.,0.,-1.));
#1054=DIRECTION('ref_axis',(-1.,0.,0.));
#1055=DIRECTION('',(0.,1.,0.));
#1056=DIRECTION('',(1.,0.,0.));
#1057=DIRECTION('center_axis',(-1.,0.,0.));
#1058=DIRECTION('ref_axis',(0.,1.,0.));
#1059=DIRECTION('',(0.,0.,-1.));
#1060=DIRECTION('',(0.,-1.,0.));
#1061=DIRECTION('',(0.,0.,-1.));
#1062=DIRECTION('center_axis',(-1.,0.,0.));
#1063=DIRECTION('ref_axis',(0.,1.,0.));
#1064=DIRECTION('',(0.,-1.,0.));
#1065=DIRECTION('',(0.,0.,1.));
#1066=DIRECTION('',(0.,-1.,0.));
#1067=DIRECTION('',(0.,0.,-1.));
#1068=DIRECTION('center_axis',(0.,0.,-1.));
#1069=DIRECTION('ref_axis',(-1.,0.,0.));
#1070=DIRECTION('',(-1.,0.,0.));
#1071=DIRECTION('',(0.,1.,0.));
#1072=DIRECTION('center_axis',(0.,0.,1.));
#1073=DIRECTION('ref_axis',(-1.,0.,0.));
#1074=DIRECTION('',(1.,0.,0.));
#1075=DIRECTION('',(0.,-1.,0.));
#1076=DIRECTION('',(-1.,0.,0.));
#1077=DIRECTION('',(-1.,0.,0.));
#1078=DIRECTION('',(0.,1.,0.));
#1079=DIRECTION('',(-1.,0.,0.));
#1080=DIRECTION('',(0.,1.,0.));
#1081=DIRECTION('',(1.,0.,0.));
#1082=DIRECTION('',(-1.,0.,0.));
#1083=DIRECTION('center_axis',(-1.,0.,0.));
#1084=DIRECTION('ref_axis',(0.,1.,0.));
#1085=DIRECTION('',(0.,0.,-1.));
#1086=DIRECTION('',(0.,1.,0.));
#1087=DIRECTION('',(0.,0.,-1.));
#1088=DIRECTION('center_axis',(0.,-1.,0.));
#1089=DIRECTION('ref_axis',(-1.,0.,0.));
#1090=DIRECTION('',(0.,0.,-1.));
#1091=DIRECTION('',(-1.,0.,0.));
#1092=DIRECTION('center_axis',(-1.,0.,0.));
#1093=DIRECTION('ref_axis',(0.,0.,1.));
#1094=DIRECTION('',(0.,0.,-1.));
#1095=DIRECTION('',(0.,0.,1.));
#1096=DIRECTION('',(0.,-1.,0.));
#1097=DIRECTION('',(0.,0.,-1.));
#1098=DIRECTION('',(0.,0.,1.));
#1099=DIRECTION('',(0.,-1.,0.));
#1100=DIRECTION('center_axis',(0.,0.,-1.));
#1101=DIRECTION('ref_axis',(-1.,0.,0.));
#1102=DIRECTION('',(-1.,0.,0.));
#1103=DIRECTION('',(0.,1.,0.));
#1104=DIRECTION('',(1.,0.,0.));
#1105=DIRECTION('',(1.,0.,0.));
#1106=DIRECTION('',(0.,1.,0.));
#1107=DIRECTION('',(1.,0.,0.));
#1108=DIRECTION('center_axis',(0.,-1.,0.));
#1109=DIRECTION('ref_axis',(1.,0.,0.));
#1110=DIRECTION('',(0.,0.,-1.));
#1111=DIRECTION('center_axis',(0.,1.,0.));
#1112=DIRECTION('ref_axis',(-1.,0.,0.));
#1113=DIRECTION('',(1.,0.,0.));
#1114=DIRECTION('',(0.,0.,1.));
#1115=DIRECTION('center_axis',(1.,0.,0.));
#1116=DIRECTION('ref_axis',(0.,0.,-1.));
#1117=DIRECTION('',(0.,1.,0.));
#1118=DIRECTION('',(0.,0.,1.));
#1119=DIRECTION('center_axis',(0.,0.,-1.));
#1120=DIRECTION('ref_axis',(-1.,0.,0.));
#1121=DIRECTION('',(-1.,0.,0.));
#1122=DIRECTION('',(0.,-1.,0.));
#1123=DIRECTION('center_axis',(-1.,0.,0.));
#1124=DIRECTION('ref_axis',(0.,1.,0.));
#1125=DIRECTION('',(0.,0.,-1.));
#1126=DIRECTION('',(0.,0.,-1.));
#1127=DIRECTION('center_axis',(0.,1.,0.));
#1128=DIRECTION('ref_axis',(1.,0.,0.));
#1129=DIRECTION('',(0.,0.,-1.));
#1130=DIRECTION('center_axis',(1.,0.,0.));
#1131=DIRECTION('ref_axis',(0.,-1.,0.));
#1132=DIRECTION('',(0.,0.,-1.));
#1133=DIRECTION('center_axis',(0.,1.,0.));
#1134=DIRECTION('ref_axis',(1.,0.,0.));
#1135=DIRECTION('center_axis',(0.,1.,0.));
#1136=DIRECTION('ref_axis',(1.,0.,0.));
#1137=DIRECTION('center_axis',(1.,0.,0.));
#1138=DIRECTION('ref_axis',(0.,-1.,0.));
#1139=DIRECTION('center_axis',(0.,-1.,0.));
#1140=DIRECTION('ref_axis',(-1.,0.,0.));
#1141=DIRECTION('center_axis',(0.,1.,0.));
#1142=DIRECTION('ref_axis',(-1.,0.,0.));
#1143=CARTESIAN_POINT('',(0.,0.,0.));
#1144=CARTESIAN_POINT('Origin',(53.1400007550837,-44.5800002235174,10.7000001519918));
#1145=CARTESIAN_POINT('',(50.6499988678843,-44.5800002235174,10.1999997720122));
#1146=CARTESIAN_POINT('',(55.6300026422832,-44.5800002235174,10.1999997720122));
#1147=CARTESIAN_POINT('',(53.1350009847642,-44.5800002235174,10.2));
#1148=CARTESIAN_POINT('',(50.6499988678843,-44.5800002235174,11.2000005319715));
#1149=CARTESIAN_POINT('',(50.6499988678843,-44.5800002235174,10.449999962002));
#1150=CARTESIAN_POINT('',(55.6300026422832,-44.5800002235174,11.2000005319715));
#1151=CARTESIAN_POINT('',(53.1350009847642,-44.5800002235174,11.2));
#1152=CARTESIAN_POINT('',(55.630001206994,-44.5800002235174,10.9500000759959));
#1153=CARTESIAN_POINT('Origin',(55.630001206994,-45.5700002235174,11.2));
#1154=CARTESIAN_POINT('',(55.630001206994,-46.0085480808677,11.2));
#1155=CARTESIAN_POINT('',(55.6300026422832,-45.5700002235174,11.2000005319715));
#1156=CARTESIAN_POINT('',(55.630001206994,-46.0085480808677,10.2));
#1157=CARTESIAN_POINT('',(55.630001206994,-46.0085480808677,12.7));
#1158=CARTESIAN_POINT('',(55.6300026422832,-45.5700002235174,10.1999997720122));
#1159=CARTESIAN_POINT('Origin',(53.1300012144446,-45.7892741521926,11.2));
#1160=CARTESIAN_POINT('',(50.6499988678843,-45.5700002235174,11.2000005319715));
#1161=CARTESIAN_POINT('',(50.6499988678843,-45.5700002235174,11.2000005319715));
#1162=CARTESIAN_POINT('',(50.6300012218951,-45.5700002235174,11.2));
#1163=CARTESIAN_POINT('',(88.430001206994,-45.5700002235174,11.2));
#1164=CARTESIAN_POINT('',(50.6300012218951,-46.0085480808677,11.2));
#1165=CARTESIAN_POINT('',(50.6300012218951,-45.679637187855,11.2));
#1166=CARTESIAN_POINT('',(51.8800012181699,-46.0085480808677,11.2));
#1167=CARTESIAN_POINT('Origin',(55.630001206994,-34.4195875302691,11.2));
#1168=CARTESIAN_POINT('',(50.6300012218951,-34.4195875302691,11.2));
#1169=CARTESIAN_POINT('',(55.630001206994,-34.4195875302691,11.2));
#1170=CARTESIAN_POINT('',(54.3800012107193,-34.4195875302691,11.2));
#1171=CARTESIAN_POINT('',(50.6300012218951,-34.4195875302691,10.2));
#1172=CARTESIAN_POINT('',(50.6300012218951,-34.4195875302691,11.2));
#1173=CARTESIAN_POINT('',(55.630001206994,-34.4195875302691,10.2));
#1174=CARTESIAN_POINT('',(54.3800012107193,-34.4195875302691,10.2));
#1175=CARTESIAN_POINT('',(55.630001206994,-34.4195875302691,12.7));
#1176=CARTESIAN_POINT('Origin',(55.630001206994,-30.4855875302691,14.2));
#1177=CARTESIAN_POINT('',(55.630001206994,-30.4855875302691,10.2));
#1178=CARTESIAN_POINT('',(55.630001206994,-47.0085480957688,10.2));
#1179=CARTESIAN_POINT('',(55.630001206994,-30.4855875302691,14.2));
#1180=CARTESIAN_POINT('',(55.630001206994,-30.4855875302691,14.2));
#1181=CARTESIAN_POINT('',(55.630001206994,-33.4700002235175,14.2));
#1182=CARTESIAN_POINT('',(55.630001206994,-34.241327671644,14.2));
#1183=CARTESIAN_POINT('',(55.630001206994,-33.4700002235175,11.2));
#1184=CARTESIAN_POINT('',(55.630001206994,-33.4700002235175,14.2));
#1185=CARTESIAN_POINT('',(55.630001206994,-47.0085480957688,11.2));
#1186=CARTESIAN_POINT('Origin',(53.1300012144446,-31.9777938768933,10.2));
#1187=CARTESIAN_POINT('',(50.6300012218951,-33.4700002235175,10.2));
#1188=CARTESIAN_POINT('',(50.6300012218951,-33.9855875302691,10.2));
#1189=CARTESIAN_POINT('',(50.6300012218951,-30.4855875302691,10.2));
#1190=CARTESIAN_POINT('',(50.6300012218951,-31.2316907035812,10.2));
#1191=CARTESIAN_POINT('',(70.2800012032687,-30.4855875302691,10.2));
#1192=CARTESIAN_POINT('Origin',(55.630001206994,-34.9855875302691,14.2));
#1193=CARTESIAN_POINT('',(56.630001206994,-34.9855875302691,14.2));
#1194=CARTESIAN_POINT('',(56.630001206994,-34.9855875302691,14.8));
#1195=CARTESIAN_POINT('',(56.630001206994,-34.9855875302691,14.2));
#1196=CARTESIAN_POINT('',(82.130001206994,-34.9855875302691,14.2));
#1197=CARTESIAN_POINT('',(49.630001206994,-34.9855875302691,14.2));
#1198=CARTESIAN_POINT('',(82.130001206994,-34.9855875302691,14.8));
#1199=CARTESIAN_POINT('',(82.130001206994,-34.9855875302691,14.2));
#1200=CARTESIAN_POINT('',(49.630001206994,-34.9855875302691,14.8));
#1201=CARTESIAN_POINT('Origin',(82.130001206994,-33.9855875302691,14.2));
#1202=CARTESIAN_POINT('',(82.130001206994,-45.5700002235174,14.2));
#1203=CARTESIAN_POINT('',(82.130001206994,-28.9855875302691,14.2));
#1204=CARTESIAN_POINT('',(82.130001206994,-45.5700002235174,14.8));
#1205=CARTESIAN_POINT('',(82.130001206994,-45.5700002235174,14.2));
#1206=CARTESIAN_POINT('',(82.130001206994,-28.9855875302691,14.8));
#1207=CARTESIAN_POINT('Origin',(87.4300011920928,-34.9855875302691,11.2));
#1208=CARTESIAN_POINT('',(87.4300011920928,-34.9855875302691,11.2));
#1209=CARTESIAN_POINT('',(82.130001206994,-34.9855875302691,11.2));
#1210=CARTESIAN_POINT('',(49.630001206994,-34.9855875302691,11.2));
#1211=CARTESIAN_POINT('',(82.130001206994,-34.9855875302691,10.2));
#1212=CARTESIAN_POINT('',(82.130001206994,-34.9855875302691,11.2));
#1213=CARTESIAN_POINT('',(87.4300011920928,-34.9855875302691,10.2));
#1214=CARTESIAN_POINT('',(49.630001206994,-34.9855875302691,10.2));
#1215=CARTESIAN_POINT('',(87.4300011920928,-34.9855875302691,11.2));
#1216=CARTESIAN_POINT('Origin',(50.6499988678843,-45.5700002235174,10.1999997720122));
#1217=CARTESIAN_POINT('',(50.6499988678843,-45.5700002235174,10.1999997720122));
#1218=CARTESIAN_POINT('',(50.6499988678843,-45.5700002235174,10.1999997720122));
#1219=CARTESIAN_POINT('',(50.6499988678843,-45.5700002235174,12.1999998860061));
#1220=CARTESIAN_POINT('Origin',(87.4300011920928,-45.5700002235174,11.2));
#1221=CARTESIAN_POINT('',(87.4300011920928,-45.5700002235174,10.2));
#1222=CARTESIAN_POINT('',(87.4300011920928,-45.5700002235174,11.2));
#1223=CARTESIAN_POINT('',(87.4300011920928,-45.5700002235174,12.7));
#1224=CARTESIAN_POINT('',(87.4300011920928,-44.5700002235174,10.2));
#1225=CARTESIAN_POINT('',(87.4300011920928,-45.5700002235174,10.2));
#1226=CARTESIAN_POINT('',(87.4300011920928,-44.5700002235174,11.2));
#1227=CARTESIAN_POINT('',(87.4300011920928,-44.5700002235174,11.2));
#1228=CARTESIAN_POINT('',(87.4300011920928,-45.5700002235174,11.2));
#1229=CARTESIAN_POINT('Origin',(84.7800011995434,-44.5700002235174,10.7));
#1230=CARTESIAN_POINT('',(82.130001206994,-44.5700002235174,10.2));
#1231=CARTESIAN_POINT('',(82.130001206994,-44.5700002235174,11.2));
#1232=CARTESIAN_POINT('',(82.130001206994,-44.5700002235174,10.2));
#1233=CARTESIAN_POINT('',(82.130001206994,-44.5700002235174,11.2));
#1234=CARTESIAN_POINT('',(87.4300011920928,-44.5700002235174,10.2));
#1235=CARTESIAN_POINT('Origin',(69.030001206994,-37.997067813019,14.8));
#1236=CARTESIAN_POINT('',(88.000001206994,-47.0085480957688,14.8));
#1237=CARTESIAN_POINT('',(88.000001206994,-28.9855875302691,14.8));
#1238=CARTESIAN_POINT('',(88.000001206994,-42.5028079543939,14.8));
#1239=CARTESIAN_POINT('',(50.000001206994,-28.9855875302691,14.8));
#1240=CARTESIAN_POINT('',(49.630001206994,-28.9855875302691,14.8));
#1241=CARTESIAN_POINT('',(50.000001206994,-47.0085480957688,14.8));
#1242=CARTESIAN_POINT('',(50.000001206994,-33.491327671644,14.8));
#1243=CARTESIAN_POINT('',(88.430001206994,-47.0085480957688,14.8));
#1244=CARTESIAN_POINT('',(56.630001206994,-45.5700002235174,14.8));
#1245=CARTESIAN_POINT('',(88.430001206994,-45.5700002235174,14.8));
#1246=CARTESIAN_POINT('',(56.630001206994,-47.0085480957688,14.8));
#1247=CARTESIAN_POINT('Origin',(56.630001206994,-45.5700002235174,14.2));
#1248=CARTESIAN_POINT('',(56.630001206994,-45.5700002235174,14.2));
#1249=CARTESIAN_POINT('',(56.630001206994,-45.5700002235174,14.2));
#1250=CARTESIAN_POINT('',(56.630001206994,-47.0085480957688,14.2));
#1251=CARTESIAN_POINT('Origin',(53.1300012144446,-45.7892741521926,10.2));
#1252=CARTESIAN_POINT('',(50.6300012218951,-46.0085480808677,10.2));
#1253=CARTESIAN_POINT('',(51.8800012181699,-46.0085480808677,10.2));
#1254=CARTESIAN_POINT('',(50.6300012218951,-45.5700002235174,10.2));
#1255=CARTESIAN_POINT('',(50.6300012218951,-45.679637187855,10.2));
#1256=CARTESIAN_POINT('',(88.430001206994,-45.5700002235174,10.2));
#1257=CARTESIAN_POINT('Origin',(50.6300012218951,-45.5700002235174,14.2));
#1258=CARTESIAN_POINT('',(50.6300012218951,-46.0085480808677,3.09999999999996));
#1259=CARTESIAN_POINT('',(50.6300012218951,-46.0085480808677,14.2));
#1260=CARTESIAN_POINT('',(50.6300012218951,-45.5700002235174,3.09999999999996));
#1261=CARTESIAN_POINT('',(50.6300012218951,-47.0085480957688,3.09999999999996));
#1262=CARTESIAN_POINT('',(50.6300012218951,-45.5700002235174,14.2));
#1263=CARTESIAN_POINT('Origin',(87.4300011920928,-33.4700002235175,11.2));
#1264=CARTESIAN_POINT('',(87.4300011920928,-33.4700002235175,11.2));
#1265=CARTESIAN_POINT('',(87.4300011920928,-28.9855875302691,11.2));
#1266=CARTESIAN_POINT('',(87.4300011920928,-33.4700002235175,10.2));
#1267=CARTESIAN_POINT('',(87.4300011920928,-28.9855875302691,10.2));
#1268=CARTESIAN_POINT('',(87.4300011920928,-33.4700002235175,12.7));
#1269=CARTESIAN_POINT('Origin',(84.7800011995434,-33.7277938768933,11.2));
#1270=CARTESIAN_POINT('',(82.130001206994,-33.4700002235175,11.2));
#1271=CARTESIAN_POINT('',(86.6050012032687,-33.4700002235175,11.2));
#1272=CARTESIAN_POINT('',(82.130001206994,-33.9855875302691,11.2));
#1273=CARTESIAN_POINT('Origin',(50.6300012218951,-33.9855875302691,11.2));
#1274=CARTESIAN_POINT('',(50.6300012218951,-33.4700002235175,11.2));
#1275=CARTESIAN_POINT('',(50.6300012218951,-47.0085480957688,11.2));
#1276=CARTESIAN_POINT('',(50.6300012218951,-33.4700002235175,12.7));
#1277=CARTESIAN_POINT('Origin',(53.1300012144446,-33.7277938768933,11.2));
#1278=CARTESIAN_POINT('',(51.8800012181699,-33.4700002235175,11.2));
#1279=CARTESIAN_POINT('Origin',(50.6300012218951,-33.4700002235175,14.2));
#1280=CARTESIAN_POINT('',(50.000001206994,-33.4700002235175,14.2));
#1281=CARTESIAN_POINT('',(59.8300012144446,-33.4700002235175,14.2));
#1282=CARTESIAN_POINT('',(50.000001206994,-33.4700002235175,3.09999999999996));
#1283=CARTESIAN_POINT('',(50.000001206994,-33.4700002235175,14.2));
#1284=CARTESIAN_POINT('',(50.6300012218951,-33.4700002235175,3.09999999999996));
#1285=CARTESIAN_POINT('',(49.630001206994,-33.4700002235175,3.09999999999996));
#1286=CARTESIAN_POINT('',(50.6300012218951,-33.4700002235175,14.2));
#1287=CARTESIAN_POINT('Origin',(82.130001206994,-46.0085480808677,11.2));
#1288=CARTESIAN_POINT('',(82.130001206994,-46.0085480808677,11.2));
#1289=CARTESIAN_POINT('',(82.130001206994,-28.9855875302691,11.2));
#1290=CARTESIAN_POINT('',(82.130001206994,-46.0085480808677,10.2));
#1291=CARTESIAN_POINT('',(82.130001206994,-28.9855875302691,10.2));
#1292=CARTESIAN_POINT('',(82.130001206994,-46.0085480808677,12.7));
#1293=CARTESIAN_POINT('Origin',(84.7800011995434,-45.7892741521926,11.2));
#1294=CARTESIAN_POINT('',(87.4300011920928,-46.0085480808677,11.2));
#1295=CARTESIAN_POINT('',(87.4300011920928,-45.8989111165301,11.2));
#1296=CARTESIAN_POINT('',(67.7050012107193,-46.0085480808677,11.2));
#1297=CARTESIAN_POINT('Origin',(84.7800011995434,-45.7892741521926,10.2));
#1298=CARTESIAN_POINT('',(87.4300011920928,-46.0085480808677,10.2));
#1299=CARTESIAN_POINT('',(87.4300011920928,-45.8989111165301,10.2));
#1300=CARTESIAN_POINT('',(67.7050012107193,-46.0085480808677,10.2));
#1301=CARTESIAN_POINT('Origin',(87.4300011920928,-46.0085480808677,14.2));
#1302=CARTESIAN_POINT('',(87.4300011920928,-46.0085480808677,14.2));
#1303=CARTESIAN_POINT('',(87.4300011920928,-46.0085480808677,14.2));
#1304=CARTESIAN_POINT('',(87.4300011920928,-45.5700002235174,14.2));
#1305=CARTESIAN_POINT('',(87.4300011920928,-42.0028079469433,14.2));
#1306=CARTESIAN_POINT('',(87.4300011920928,-45.5700002235174,14.2));
#1307=CARTESIAN_POINT('Origin',(82.130001206994,-33.4700002235175,14.2));
#1308=CARTESIAN_POINT('',(82.130001206994,-30.4855875302691,14.2));
#1309=CARTESIAN_POINT('',(82.130001206994,-33.4700002235175,14.2));
#1310=CARTESIAN_POINT('',(82.130001206994,-35.7335340182682,14.2));
#1311=CARTESIAN_POINT('',(82.130001206994,-30.4855875302691,10.2));
#1312=CARTESIAN_POINT('',(82.1300012069939,-30.4855875302691,14.2));
#1313=CARTESIAN_POINT('',(82.130001206994,-33.9855875302691,10.2));
#1314=CARTESIAN_POINT('',(82.130001206994,-33.4700002235175,14.2));
#1315=CARTESIAN_POINT('Origin',(84.7800011995434,-31.9777938768933,10.2));
#1316=CARTESIAN_POINT('',(87.4300011920928,-30.4855875302691,10.2));
#1317=CARTESIAN_POINT('',(86.1050011958181,-30.4855875302691,10.2));
#1318=CARTESIAN_POINT('',(87.4300011920928,-32.7238970502054,10.2));
#1319=CARTESIAN_POINT('Origin',(69.030001206994,-37.997067813019,14.2));
#1320=CARTESIAN_POINT('',(88.000001206994,-33.4700002235175,14.2));
#1321=CARTESIAN_POINT('',(78.2300011995434,-33.4700002235175,14.2));
#1322=CARTESIAN_POINT('',(88.000001206994,-45.5700002235174,14.2));
#1323=CARTESIAN_POINT('',(88.000001206994,-42.5028079543939,14.2));
#1324=CARTESIAN_POINT('',(78.2300011995434,-45.5700002235174,14.2));
#1325=CARTESIAN_POINT('',(50.6300012218951,-46.0085480808677,14.2));
#1326=CARTESIAN_POINT('',(59.8300012144446,-46.0085480808677,14.2));
#1327=CARTESIAN_POINT('',(50.6300012218951,-45.5700002235174,14.2));
#1328=CARTESIAN_POINT('',(50.6300012218951,-41.7835340182682,14.2));
#1329=CARTESIAN_POINT('',(50.000001206994,-45.5700002235174,14.2));
#1330=CARTESIAN_POINT('',(59.330001206994,-45.5700002235174,14.2));
#1331=CARTESIAN_POINT('',(50.000001206994,-33.491327671644,14.2));
#1332=CARTESIAN_POINT('',(78.2300011995434,-30.4855875302691,14.2));
#1333=CARTESIAN_POINT('',(88.430001206994,-45.5700002235174,14.2));
#1334=CARTESIAN_POINT('Origin',(87.4300011920928,-33.4700002235175,14.2));
#1335=CARTESIAN_POINT('',(87.4300011920928,-30.4855875302691,3.09999999999996));
#1336=CARTESIAN_POINT('',(87.4300011920928,-30.4855875302691,14.2));
#1337=CARTESIAN_POINT('',(87.4300011920928,-33.4700002235175,3.09999999999996));
#1338=CARTESIAN_POINT('',(87.4300011920928,-28.9855875302691,3.09999999999996));
#1339=CARTESIAN_POINT('',(87.4300011920928,-33.4700002235175,14.2));
#1340=CARTESIAN_POINT('Origin',(87.4300011920928,-30.4855875302691,14.2));
#1341=CARTESIAN_POINT('',(50.6300012218951,-30.4855875302691,3.09999999999996));
#1342=CARTESIAN_POINT('',(50.6300012218951,-30.4855875302691,14.2));
#1343=CARTESIAN_POINT('',(49.630001206994,-30.4855875302691,3.09999999999996));
#1344=CARTESIAN_POINT('Origin',(88.000001206994,-47.0085480957688,14.2));
#1345=CARTESIAN_POINT('',(88.000001206994,-28.9855875302691,3.09999999999996));
#1346=CARTESIAN_POINT('',(88.000001206994,-28.9855875302691,14.2));
#1347=CARTESIAN_POINT('',(88.000001206994,-47.0085480957688,3.09999999999996));
#1348=CARTESIAN_POINT('',(88.000001206994,-47.0085480957688,14.2));
#1349=CARTESIAN_POINT('',(88.000001206994,-45.5700002235174,3.09999999999996));
#1350=CARTESIAN_POINT('',(88.000001206994,-46.648911127706,3.09999999999996));
#1351=CARTESIAN_POINT('',(88.000001206994,-45.5700002235174,14.2));
#1352=CARTESIAN_POINT('',(88.000001206994,-33.4700002235175,3.09999999999996));
#1353=CARTESIAN_POINT('',(88.000001206994,-33.4700002235175,14.2));
#1354=CARTESIAN_POINT('',(88.000001206994,-39.1181709863311,3.09999999999996));
#1355=CARTESIAN_POINT('Origin',(69.030001206994,-46.2892741596431,3.09999999999996));
#1356=CARTESIAN_POINT('',(50.000001206994,-47.0085480957688,3.09999999999996));
#1357=CARTESIAN_POINT('',(88.430001206994,-47.0085480957688,3.09999999999996));
#1358=CARTESIAN_POINT('',(50.000001206994,-45.5700002235174,3.09999999999996));
#1359=CARTESIAN_POINT('',(50.000001206994,-37.6374308449561,3.09999999999996));
#1360=CARTESIAN_POINT('',(88.430001206994,-45.5700002235174,3.09999999999996));
#1361=CARTESIAN_POINT('',(87.4300011920928,-46.0085480808677,3.09999999999996));
#1362=CARTESIAN_POINT('',(88.430001206994,-46.0085480808677,3.09999999999996));
#1363=CARTESIAN_POINT('',(87.4300011920928,-45.5700002235174,3.09999999999996));
#1364=CARTESIAN_POINT('',(87.4300011920928,-28.9855875302691,3.09999999999996));
#1365=CARTESIAN_POINT('',(88.430001206994,-45.5700002235174,3.09999999999996));
#1366=CARTESIAN_POINT('Origin',(49.630001206994,-47.0085480957688,14.2));
#1367=CARTESIAN_POINT('',(50.000001206994,-47.0085480957688,14.2));
#1368=CARTESIAN_POINT('Origin',(88.430001206994,-28.9855875302691,14.2));
#1369=CARTESIAN_POINT('',(50.000001206994,-28.9855875302691,3.09999999999996));
#1370=CARTESIAN_POINT('',(49.630001206994,-28.9855875302691,3.09999999999996));
#1371=CARTESIAN_POINT('',(50.000001206994,-28.9855875302691,14.2));
#1372=CARTESIAN_POINT('Origin',(50.000001206994,-28.9855875302691,14.2));
#1373=CARTESIAN_POINT('',(50.000001206994,-30.1066907035812,3.09999999999996));
#1374=CARTESIAN_POINT('',(50.000001206994,-45.5700002235174,14.2));
#1375=CARTESIAN_POINT('Origin',(69.030001206994,-31.2277938768933,3.09999999999996));
#1376=CARTESIAN_POINT('',(49.630001206994,-33.4700002235175,3.09999999999996));
#1377=CARTESIAN_POINT('',(50.6300012218951,-47.0085480957688,3.09999999999996));
#1378=CARTESIAN_POINT('Origin',(87.4300011920928,-46.0085480808677,14.2));
#1379=CARTESIAN_POINT('',(87.4300011920928,-45.5700002235174,14.2));
#1380=CARTESIAN_POINT('',(87.4300011920928,-46.0085480808677,14.2));
#1381=CARTESIAN_POINT('Origin',(50.6300012218951,-46.0085480808677,14.2));
#1382=CARTESIAN_POINT('',(50.6300012218951,-46.0085480808677,14.2));
#1383=CARTESIAN_POINT('Origin',(50.6300012218951,-45.5700002235174,14.2));
#1384=CARTESIAN_POINT('',(50.6300012218951,-45.5700002235174,14.2));
#1385=CARTESIAN_POINT('Origin',(49.630001206994,-45.5700002235174,14.2));
#1386=CARTESIAN_POINT('Origin',(87.4300011920928,-45.5700002235174,14.2));
#1387=CARTESIAN_POINT('Origin',(50.6300012218951,-30.4855875302691,14.2));
#1388=CARTESIAN_POINT('Origin',(88.430001206994,-33.4700002235175,14.2));
#1389=CARTESIAN_POINT('Origin',(82.130001206994,-45.5700002235174,14.2));
#1390=UNCERTAINTY_MEASURE_WITH_UNIT(LENGTH_MEASURE(0.01),#1394,
'DISTANCE_ACCURACY_VALUE',
'Maximum model space distance between geometric entities at asserted c
onnectivities');
#1391=UNCERTAINTY_MEASURE_WITH_UNIT(LENGTH_MEASURE(0.01),#1394,
'DISTANCE_ACCURACY_VALUE',
'Maximum model space distance between geometric entities at asserted c
onnectivities');
#1392=(
GEOMETRIC_REPRESENTATION_CONTEXT(3)
GLOBAL_UNCERTAINTY_ASSIGNED_CONTEXT((#1390))
GLOBAL_UNIT_ASSIGNED_CONTEXT((#1394,#1395,#1396))
REPRESENTATION_CONTEXT('','3D')
);
#1393=(
GEOMETRIC_REPRESENTATION_CONTEXT(3)
GLOBAL_UNCERTAINTY_ASSIGNED_CONTEXT((#1391))
GLOBAL_UNIT_ASSIGNED_CONTEXT((#1394,#1395,#1396))
REPRESENTATION_CONTEXT('','3D')
);
#1394=(
LENGTH_UNIT()
NAMED_UNIT(*)
SI_UNIT(.MILLI.,.METRE.)
);
#1395=(
NAMED_UNIT(*)
PLANE_ANGLE_UNIT()
SI_UNIT($,.RADIAN.)
);
#1396=(
NAMED_UNIT(*)
SI_UNIT($,.STERADIAN.)
SOLID_ANGLE_UNIT()
);
#1397=SHAPE_DEFINITION_REPRESENTATION(#1398,#1399);
#1398=PRODUCT_DEFINITION_SHAPE('',$,#1401);
#1399=SHAPE_REPRESENTATION('',(#886),#1392);
#1400=PRODUCT_DEFINITION_CONTEXT('part definition',#1405,'design');
#1401=PRODUCT_DEFINITION('Low Profile Numpad V1',
'Low Profile Numpad V1 v19',#1402,#1400);
#1402=PRODUCT_DEFINITION_FORMATION('',$,#1407);
#1403=PRODUCT_RELATED_PRODUCT_CATEGORY('Low Profile Numpad V1 v19',
'Low Profile Numpad V1 v19',(#1407));
#1404=APPLICATION_PROTOCOL_DEFINITION('international standard',
'ap242_managed_model_based_3d_engineering',2011,#1405);
#1405=APPLICATION_CONTEXT('Managed model based 3d engineering');
#1406=PRODUCT_CONTEXT('part definition',#1405,'mechanical');
#1407=PRODUCT('Low Profile Numpad V1','Low Profile Numpad V1 v19',$,(#1406));
#1408=PRESENTATION_STYLE_ASSIGNMENT((#1415));
#1409=PRESENTATION_STYLE_ASSIGNMENT((#1416));
#1410=PRESENTATION_STYLE_ASSIGNMENT((#1417));
#1411=PRESENTATION_STYLE_ASSIGNMENT((#1418));
#1412=PRESENTATION_STYLE_ASSIGNMENT((#1419));
#1413=PRESENTATION_STYLE_ASSIGNMENT((#1420));
#1414=PRESENTATION_STYLE_ASSIGNMENT((#1421));
#1415=SURFACE_STYLE_USAGE(.BOTH.,#1422);
#1416=SURFACE_STYLE_USAGE(.BOTH.,#1423);
#1417=SURFACE_STYLE_USAGE(.BOTH.,#1424);
#1418=SURFACE_STYLE_USAGE(.BOTH.,#1425);
#1419=SURFACE_STYLE_USAGE(.BOTH.,#1426);
#1420=SURFACE_STYLE_USAGE(.BOTH.,#1427);
#1421=SURFACE_STYLE_USAGE(.BOTH.,#1428);
#1422=SURFACE_SIDE_STYLE('',(#1429));
#1423=SURFACE_SIDE_STYLE('',(#1430));
#1424=SURFACE_SIDE_STYLE('',(#1431));
#1425=SURFACE_SIDE_STYLE('',(#1432));
#1426=SURFACE_SIDE_STYLE('',(#1433));
#1427=SURFACE_SIDE_STYLE('',(#1434));
#1428=SURFACE_SIDE_STYLE('',(#1435));
#1429=SURFACE_STYLE_FILL_AREA(#1436);
#1430=SURFACE_STYLE_FILL_AREA(#1437);
#1431=SURFACE_STYLE_FILL_AREA(#1438);
#1432=SURFACE_STYLE_FILL_AREA(#1439);
#1433=SURFACE_STYLE_FILL_AREA(#1440);
#1434=SURFACE_STYLE_FILL_AREA(#1441);
#1435=SURFACE_STYLE_FILL_AREA(#1442);
#1436=FILL_AREA_STYLE('Stainless Steel - Satin',(#1443));
#1437=FILL_AREA_STYLE('Steel - Satin',(#1444));
#1438=FILL_AREA_STYLE('Opaque(10,10,10)',(#1445));
#1439=FILL_AREA_STYLE('Black',(#1446));
#1440=FILL_AREA_STYLE('Opaque(44,44,44)',(#1447));
#1441=FILL_AREA_STYLE('Paint - Metallic (Blue)',(#1448));
#1442=FILL_AREA_STYLE('Plastic - Glossy (Black)',(#1449));
#1443=FILL_AREA_STYLE_COLOUR('Stainless Steel - Satin',#1450);
#1444=FILL_AREA_STYLE_COLOUR('Steel - Satin',#1451);
#1445=FILL_AREA_STYLE_COLOUR('Opaque(10,10,10)',#1452);
#1446=FILL_AREA_STYLE_COLOUR('Black',#1453);
#1447=FILL_AREA_STYLE_COLOUR('Opaque(44,44,44)',#1454);
#1448=FILL_AREA_STYLE_COLOUR('Paint - Metallic (Blue)',#1455);
#1449=FILL_AREA_STYLE_COLOUR('Plastic - Glossy (Black)',#1456);
#1450=COLOUR_RGB('Stainless Steel - Satin',0.796078431372549,0.796078431372549,
0.796078431372549);
#1451=COLOUR_RGB('Steel - Satin',0.627450980392157,0.627450980392157,0.627450980392157);
#1452=COLOUR_RGB('Opaque(10,10,10)',0.0392156862745098,0.0392156862745098,
0.0392156862745098);
#1453=COLOUR_RGB('Black',0.172549019607843,0.172549019607843,0.172549019607843);
#1454=COLOUR_RGB('Opaque(44,44,44)',0.172549019607843,0.172549019607843,
0.172549019607843);
#1455=COLOUR_RGB('Paint - Metallic (Blue)',0.188235294117647,0.231372549019608,
0.588235294117647);
#1456=COLOUR_RGB('Plastic - Glossy (Black)',0.0980392156862745,0.0980392156862745,
0.0980392156862745);
ENDSEC;
END-ISO-10303-21;
